<mxfile host="app.diagrams.net" modified="2023-05-23T12:32:04.610Z" agent="Mozilla/5.0 (X11; Linux x86_64) AppleWebKit/537.36 (KHTML, like Gecko) Chrome/113.0.0.0 Safari/537.36" etag="9tG58qgkeBpVvb4KMFQv" version="21.3.2" type="github">
  <diagram name="Page-1" id="yHnOsw6wXcllBBH8uz4F">
    <mxGraphModel dx="1834" dy="1234" grid="1" gridSize="10" guides="1" tooltips="1" connect="1" arrows="1" fold="1" page="0" pageScale="1" pageWidth="850" pageHeight="1100" math="0" shadow="0">
      <root>
        <mxCell id="0" />
        <mxCell id="1" parent="0" />
        <mxCell id="D8VTZwgvbpJMz_FODV27-1" value="JUMPBOX" style="whiteSpace=wrap;html=1;aspect=fixed;" vertex="1" parent="1">
          <mxGeometry x="390" y="390" width="150" height="150" as="geometry" />
        </mxCell>
        <mxCell id="D8VTZwgvbpJMz_FODV27-2" value="192.168.28.100&lt;br&gt;80,2222" style="whiteSpace=wrap;html=1;aspect=fixed;" vertex="1" parent="1">
          <mxGeometry x="150" y="80" width="150" height="150" as="geometry" />
        </mxCell>
        <mxCell id="D8VTZwgvbpJMz_FODV27-3" value="192.168.28.105&lt;br&gt;21,23,2222" style="whiteSpace=wrap;html=1;aspect=fixed;" vertex="1" parent="1">
          <mxGeometry x="390" y="81" width="150" height="150" as="geometry" />
        </mxCell>
        <mxCell id="D8VTZwgvbpJMz_FODV27-4" value="" style="whiteSpace=wrap;html=1;aspect=fixed;" vertex="1" parent="1">
          <mxGeometry x="-40" y="-300" width="150" height="150" as="geometry" />
        </mxCell>
        <mxCell id="D8VTZwgvbpJMz_FODV27-5" value="Lin ops&lt;br&gt;" style="whiteSpace=wrap;html=1;aspect=fixed;" vertex="1" parent="1">
          <mxGeometry x="390" y="640" width="150" height="150" as="geometry" />
        </mxCell>
        <mxCell id="D8VTZwgvbpJMz_FODV27-6" value="192.168.28.111&lt;br&gt;80,2222,8080" style="whiteSpace=wrap;html=1;aspect=fixed;" vertex="1" parent="1">
          <mxGeometry x="630" y="80" width="150" height="150" as="geometry" />
        </mxCell>
        <mxCell id="D8VTZwgvbpJMz_FODV27-7" value="" style="whiteSpace=wrap;html=1;aspect=fixed;" vertex="1" parent="1">
          <mxGeometry x="-270" y="-320" width="150" height="150" as="geometry" />
        </mxCell>
        <mxCell id="D8VTZwgvbpJMz_FODV27-8" value="" style="endArrow=none;html=1;rounded=0;exitX=0.5;exitY=0;exitDx=0;exitDy=0;entryX=0.5;entryY=1;entryDx=0;entryDy=0;" edge="1" parent="1" source="D8VTZwgvbpJMz_FODV27-1" target="D8VTZwgvbpJMz_FODV27-3">
          <mxGeometry width="50" height="50" relative="1" as="geometry">
            <mxPoint x="-10" y="360" as="sourcePoint" />
            <mxPoint x="40" y="310" as="targetPoint" />
          </mxGeometry>
        </mxCell>
        <mxCell id="D8VTZwgvbpJMz_FODV27-9" value="" style="endArrow=none;html=1;rounded=0;entryX=0.5;entryY=0;entryDx=0;entryDy=0;exitX=0.5;exitY=1;exitDx=0;exitDy=0;" edge="1" parent="1" source="D8VTZwgvbpJMz_FODV27-2" target="D8VTZwgvbpJMz_FODV27-1">
          <mxGeometry width="50" height="50" relative="1" as="geometry">
            <mxPoint x="-70" y="330" as="sourcePoint" />
            <mxPoint x="460" y="380" as="targetPoint" />
          </mxGeometry>
        </mxCell>
        <mxCell id="D8VTZwgvbpJMz_FODV27-10" value="" style="endArrow=none;html=1;rounded=0;exitX=0.5;exitY=0;exitDx=0;exitDy=0;entryX=0.5;entryY=1;entryDx=0;entryDy=0;" edge="1" parent="1" source="D8VTZwgvbpJMz_FODV27-1" target="D8VTZwgvbpJMz_FODV27-6">
          <mxGeometry width="50" height="50" relative="1" as="geometry">
            <mxPoint x="470" y="390" as="sourcePoint" />
            <mxPoint x="480" y="310" as="targetPoint" />
          </mxGeometry>
        </mxCell>
        <mxCell id="D8VTZwgvbpJMz_FODV27-11" value="" style="endArrow=none;html=1;rounded=0;exitX=0.5;exitY=0;exitDx=0;exitDy=0;entryX=0.5;entryY=1;entryDx=0;entryDy=0;" edge="1" parent="1" source="D8VTZwgvbpJMz_FODV27-5" target="D8VTZwgvbpJMz_FODV27-1">
          <mxGeometry width="50" height="50" relative="1" as="geometry">
            <mxPoint x="330" y="570" as="sourcePoint" />
            <mxPoint x="460" y="530" as="targetPoint" />
          </mxGeometry>
        </mxCell>
        <mxCell id="D8VTZwgvbpJMz_FODV27-13" value="grey-site-donovia-10&lt;br&gt;192.168.28.120&lt;br&gt;4242" style="whiteSpace=wrap;html=1;aspect=fixed;" vertex="1" parent="1">
          <mxGeometry x="-70" y="190" width="150" height="150" as="geometry" />
        </mxCell>
        <mxCell id="D8VTZwgvbpJMz_FODV27-14" value="" style="endArrow=none;html=1;rounded=0;entryX=0.5;entryY=0;entryDx=0;entryDy=0;exitX=1;exitY=0.5;exitDx=0;exitDy=0;" edge="1" parent="1" source="D8VTZwgvbpJMz_FODV27-13" target="D8VTZwgvbpJMz_FODV27-1">
          <mxGeometry width="50" height="50" relative="1" as="geometry">
            <mxPoint x="330" y="330" as="sourcePoint" />
            <mxPoint x="460" y="390" as="targetPoint" />
          </mxGeometry>
        </mxCell>
      </root>
    </mxGraphModel>
  </diagram>
</mxfile>
